<?xml version="1.0" encoding="UTF-8"?>
<!DOCTYPE svg PUBLIC "-//W3C//DTD SVG 1.1//EN" "http://www.w3.org/Graphics/SVG/1.1/DTD/svg11.dtd">
<svg xmlns="http://www.w3.org/2000/svg" style="background-color: rgb(255, 255, 255);" xmlns:xlink="http://www.w3.org/1999/xlink" version="1.1" width="612px" height="382px" viewBox="-0.5 -0.5 612 382"><defs/><g><path d="M 121 271 L 186 271 L 186 211 L 242.76 211" fill="none" stroke="#000000" stroke-width="2" stroke-miterlimit="10" pointer-events="stroke"/><path d="M 248.76 211 L 240.76 215 L 242.76 211 L 240.76 207 Z" fill="#000000" stroke="#000000" stroke-width="2" stroke-miterlimit="10" pointer-events="all"/><path d="M 121 271 L 186 271 L 186 351 L 242.76 351" fill="none" stroke="#000000" stroke-width="2" stroke-miterlimit="10" pointer-events="stroke"/><path d="M 248.76 351 L 240.76 355 L 242.76 351 L 240.76 347 Z" fill="#000000" stroke="#000000" stroke-width="2" stroke-miterlimit="10" pointer-events="all"/><rect x="1" y="241" width="120" height="60" rx="9" ry="9" fill="#d5e8d4" stroke="#82b366" stroke-width="2" pointer-events="all"/><path d="M 371 211 L 482.76 211" fill="none" stroke="#000000" stroke-width="2" stroke-miterlimit="10" pointer-events="stroke"/><path d="M 488.76 211 L 480.76 215 L 482.76 211 L 480.76 207 Z" fill="#000000" stroke="#000000" stroke-width="2" stroke-miterlimit="10" pointer-events="all"/><rect x="251" y="181" width="120" height="60" rx="9" ry="9" fill="#fff2cc" stroke="#d6b656" stroke-width="2" pointer-events="all"/><path d="M 251 31 L 61 31 L 61 232.76" fill="none" stroke="#000000" stroke-width="2" stroke-miterlimit="10" pointer-events="stroke"/><path d="M 61 238.76 L 57 230.76 L 61 232.76 L 65 230.76 Z" fill="#000000" stroke="#000000" stroke-width="2" stroke-miterlimit="10" pointer-events="all"/><rect x="251" y="1" width="120" height="60" rx="9" ry="9" fill="#f8cecc" stroke="#b85450" stroke-width="2" pointer-events="all"/><path d="M 551 181 L 551 31 L 379.24 31" fill="none" stroke="#000000" stroke-width="2" stroke-miterlimit="10" pointer-events="stroke"/><path d="M 373.24 31 L 381.24 27 L 379.24 31 L 381.24 35 Z" fill="#000000" stroke="#000000" stroke-width="2" stroke-miterlimit="10" pointer-events="all"/><rect x="491" y="181" width="120" height="60" rx="9" ry="9" fill="#dae8fc" stroke="#6c8ebf" stroke-width="2" pointer-events="all"/><path d="M 371 351 L 551 351 L 551 249.24" fill="none" stroke="#000000" stroke-width="2" stroke-miterlimit="10" pointer-events="stroke"/><path d="M 551 243.24 L 555 251.24 L 551 249.24 L 547 251.24 Z" fill="#000000" stroke="#000000" stroke-width="2" stroke-miterlimit="10" pointer-events="all"/><rect x="251" y="321" width="120" height="60" rx="9" ry="9" fill="#fff2cc" stroke="#d6b656" stroke-width="2" pointer-events="all"/></g></svg>