<?xml version="1.0" encoding="UTF-8"?>
<svg viewBox="0 0 374.35266 300.72592" xmlns="http://www.w3.org/2000/svg">
 <g transform="translate(108.35 25.336)">
  <path d="m242.07 122.07c0.0198 66.308-53.728 120.07-120.04 120.07s-120.06-53.764-120.04-120.07c-0.0198-66.308 53.728-120.07 120.04-120.07s120.06 53.764 120.04 120.07z" fill="#fff" stroke="#000" stroke-linecap="round" stroke-linejoin="round" stroke-width="4"/>
  <path d="m122.19 62.964c-55.318 1.1211-79.188 37.344-79.188 81.812 0 19.851 10.824 38.075 25.156 52.25-30.524-12.934-54.598-38.139-66.031-69.406 2.9079 63.683 55.509 114.5 119.91 114.5 66.26 1e-5 120.03-53.771 120.03-120.03 0-14.468-2.5522-28.34-7.25-41.188 0.0841 1.8428 0.15625 3.699 0.15625 5.5625 0 32.537-12.988 62.062-34.031 83.688 3.6058-7.988 5.75-16.521 5.75-25.375 0-45.174-24.621-81.812-81.844-81.812-0.89395 0-1.7782-0.0178-2.6562 0z" fill-opacity=".3137"/>
  <path d="m130.22 242.64c0 9.0908 14.665 9.3814 32.735 9.3814s32.735 0.69349 32.735-9.3814c0-17.716-14.665-32.094-32.735-32.094s-32.735 14.378-32.735 32.094z" fill="#333" stroke="#000" stroke-linecap="round" stroke-linejoin="round" stroke-width="4"/>
  <path d="m115.22 242.64c0 9.0908-14.665 9.3814-32.735 9.3814s-32.735 0.69349-32.735-9.3814c0-17.716 14.665-32.094 32.735-32.094s32.735 14.378 32.735 32.094z" fill="#333" stroke="#000" stroke-linecap="round" stroke-linejoin="round" stroke-width="4"/>
  <path d="m69.894 251.42c0-16.368 9.4428-26.44 9.4428-26.44s-3.7771 13.849-3.1476 26.44h-6.2952z" fill-opacity=".3137" fill-rule="evenodd" stroke="#000" stroke-linejoin="round" stroke-width="4"/>
  <path d="m123.82 195.03c-46.403-3.3499-78.501 11.437-78.501 11.437s10.241-0.24759 16.017 0.6714c-10.831 7.4126-14.382 22.123-14.382 22.123s12.078-12.944 24.46-17.549c-10.513 13.981-11.913 36.96-11.913 36.96s12.09-35.725 34.679-43.124c17.221-5.6404 35.434-2.3231 35.434-2.3231s36.116-2.4911 48.491 19.076c1.6292 0.77175 1.4682-13.098-8.7848-18.047l27.631-1.4305c-20.153-8.4853-73.132-7.7944-73.132-7.7944z" fill="#4a0" fill-rule="evenodd" stroke="#000" stroke-linejoin="round" stroke-width="4"/>
  <path d="m119.38 49.776c-30.129 0.61059-50.932 11.653-63.625 28.75-24.064-2.5878-44.062 23.625-44.062 23.625s18.891 9.4463 32.062 1.5312c-2.3992 8.7117-3.5625 18.106-3.5625 27.906 0 45.174 56.126 81.844 81.844 81.844 26.717 0 81.844-36.669 81.844-81.844 0-9.8003-1.1639-19.195-3.5625-27.906 13.171 7.9151 32.031-1.5312 32.031-1.5312s-19.971-26.205-44.031-23.625c-13.062-17.595-34.708-28.75-66.281-28.75-0.89395 0-1.7782-0.0178-2.6562 0z" fill="#333" stroke="#000" stroke-linecap="round" stroke-linejoin="round" stroke-width="4"/>
  <path d="m175.54 251.42c0-16.368-9.4428-26.44-9.4428-26.44s3.7771 13.849 3.1476 26.44h6.2952z" fill-opacity=".3137" fill-rule="evenodd" stroke="#000" stroke-linejoin="round" stroke-width="4"/>
  <path d="m118.41 119.6c4e-3 12.519-10.144 22.67-22.663 22.67s-22.667-10.151-22.663-22.67 10.144-22.67 22.663-22.67 22.666 10.151 22.663 22.67z" fill="#fff" stroke="#000" stroke-linecap="round" stroke-linejoin="round" stroke-width="4"/>
  <path d="m171.14 119.6c4e-3 12.519-10.144 22.67-22.663 22.67s-22.667-10.151-22.663-22.67 10.144-22.67 22.663-22.67 22.666 10.151 22.663 22.67z" fill="#fff" stroke="#000" stroke-linecap="round" stroke-linejoin="round" stroke-width="4"/>
  <path d="m150.99 123.6c1e-3 4.173-3.3813 7.5565-7.5542 7.5565s-7.5555-3.3835-7.5542-7.5565 3.3813-7.5565 7.5542-7.5565 7.5555 3.3835 7.5542 7.5565z"/>
  <path d="m108.96 123.6c1e-3 4.173-3.3813 7.5565-7.5542 7.5565s-7.5555-3.3835-7.5542-7.5565 3.3813-7.5565 7.5542-7.5565 7.5555 3.3835 7.5542 7.5565z"/>
  <path d="m200.59 104.78-1.875 2.6562c0.24888 3.0755 0.34375 6.2026 0.34375 9.375 0 45.174-55.127 81.844-81.844 81.844-20.706 2e-5 -61.097-23.756-76.062-56.594 7.6158 40.246 57.172 71.375 80.875 71.375 26.717 0 81.844-36.669 81.844-81.844 0-9.3916-1.0754-18.41-3.2812-26.812z" fill-opacity=".3137"/>
  <path d="m138.63 184.23c-2.2927 3.9731-6.5002 5.8386-9.3968 4.1663s-3.3847-6.2489-1.0903-10.221 6.5003-5.8386 9.3968-4.1663 3.3847 6.2489 1.0903 10.221z"/>
  <path d="m105.9 184.23c2.2927 3.9731 6.5002 5.8386 9.3968 4.1663s3.3847-6.2489 1.0903-10.221-6.5003-5.8386-9.3968-4.1663-3.3847 6.2489-1.0903 10.221z"/>
  <path d="m46.90156,212.38348c-3.29969-.34546-6.27774,2.03968-6.6232,5.33939-.0552.5277-.0194,1.04476.0581,1.5457-2.78152.27262-5.09905,2.48582-5.40132,5.37306-.34546,3.29971 2.07403,6.24993 5.37372,6.59538 .75259.0788 1.46564.002 2.15575-.18279-.16989,3.17347 2.17561,5.97779 5.37194,6.31242 3.29972.34544 6.24992-2.07401 6.59538-5.37374 .0864-.82493.006-1.63304-.22216-2.37981 2.57267-.45549 4.66767-2.56718 4.95317-5.29429 .34545-3.29972-2.07401-6.24992-5.37372-6.59538-.5265-.0551-1.04256-.05-1.54246.027-.27261-2.78152-2.45798-5.06471-5.34523-5.36698zm.29299,11.90773c.0399.40692.10311.80409.22148,1.18576-.1726.0306-.34586.0581-.51355.10333 .0228-.4257.008-.85594-.0563-1.26272 .11437-.0112.23577-.009.3484-.0264z" fill="#ff0" stroke="#000" stroke-linecap="round" stroke-linejoin="round" stroke-width="4"/>
  <path d="m3.7644 106.18c-24.273-36.133-5.4501-130.69 112.65-128.28 130.14-2.2724 121.81 59.248 116.39 123.32" fill="none" stroke="#000" stroke-width="6.3569"/>
  <path transform="matrix(.039 -.39971 .42632 .0416 -198.53 245.21)" d="m307.98 529.2c0.16639-47.667 38.943-86.174 86.61-86.007 47.549 0.16598 86.008 38.759 86.008 86.309h-86.309z" fill="#ccc" fill-opacity=".9922" stroke="#000" stroke-linecap="round" stroke-linejoin="round" stroke-width="13.074"/>
  <path d="m-0.98607 101.41c-11.387 9.0122-24.187 18.538-26.395 30.733-2.664-14.054 29.412-16.908 32.414-2.8691 2.462 12.074-24.08 15.915-31.73 6.5201-6.4518 4.4589-0.54974 12.104 8.2926 9.9434 11.287 4.3405-5.5074 22.039-8.8311 9.2358 5.5107-14.185-27.756-6.2237-23.065 1.5862 18.615-1.6959 7.6675 13.766-6.1169 11.528-13.382-1.3736 8.8862-15.012-9.445-11.06-18.939 2.2004 9.9558 12.256-8.2142 16.231-12.621 4.7065-18.328-7.247-6.4741-10.644 4.7738-7.9012-16.37 1.691-15.311 6.5964-7.2097 9.4128 24.272 14.553 4.7413 21.833-16.566 4.7777-1.9732-18.66-13.538-10.814-4.5172 11.221-5.6811 26.686 11.105 33.733 15.529 1.2166-9.3931-15.955 8.2364-11.505 8.7827 5.7081 27.044-4.3068 32.68 7.0048 9.3798 14.099-26.378 11.893-26.023 8.567 14.026 9.0499 35.078 5.5745 51.716 8.7664-8.6066 3.2891-25.087-4.5095-35.525 0.6146-13.452 8.0198 13.164 17.433 24.571 14.215 5.7323-1.8873 21.166-4.711 12.228 1.4626-13.641-2.7166-31.212 6.9376-14.495 13.721 14.05 4.3767 34.062 7.9796 39.149-5.2884 10.485-6.9605 20.662 11.242 2.9282 9.1351-15.997-1.0789-16.328 12.551-0.83018 12.887 14.065 0.81618 28.125-1.4555 41.984-2.8224 32.11-4.7691 62.013-15.057 94.849-17.828 17.293-4.377 35.802-1.6795 53.613-2.17l73.68 4.8594m-346.9-48.481c-7.3712 5.6488 3.0625 6.039 0 0zm-3.1249 5.6723c-1.9513 1.4845 3.2821 0.65628 0 0zm97.357 46.719-0.1047-6e-3 0.1047 6e-3zm-1.4881 0.49649zm-0.29761 0.0373h-0.10518 0.10518zm-21.075 5.5234 0.11447 0.072-0.11447-0.072zm-0.76263 4.5304 0.02994-0.0854-0.02994 0.0854zm2.7529 0.91849-0.11949-0.0218 0.11949 0.0218zm2.7901 1.899 0.35857-0.17897-0.35857 0.17897zm14.416 0.42205 0.04286 0.0576-0.04286-0.0576zm-9.9142 0.37233 0.27648-0.14434-0.27648 0.14434zm9.6724 0.21102-0.11846 0.14712 0.11846-0.14712zm1.0416 0.69508 0.15637-0.0518-0.15637 0.0518z" fill="none" stroke="#000" stroke-width="1.5892"/>
  <path transform="matrix(.04704 .39884 -.4254 .05017 402.99 -78.331)" d="m307.98 529.2c0.16639-47.667 38.943-86.174 86.61-86.007 47.549 0.16598 86.008 38.759 86.008 86.309h-86.309z" fill="#ccc" fill-opacity=".9922" stroke="#000" stroke-linecap="round" stroke-linejoin="round" stroke-width="13.074"/>
 </g>
</svg>
