<?xml version="1.0" encoding="UTF-8" standalone="no"?>
<svg
   xmlns:dc="http://purl.org/dc/elements/1.1/"
   xmlns:cc="http://creativecommons.org/ns#"
   xmlns:rdf="http://www.w3.org/1999/02/22-rdf-syntax-ns#"
   xmlns:svg="http://www.w3.org/2000/svg"
   xmlns="http://www.w3.org/2000/svg"
   xmlns:sodipodi="http://sodipodi.sourceforge.net/DTD/sodipodi-0.dtd"
   xmlns:inkscape="http://www.inkscape.org/namespaces/inkscape"
   enable-background="new 0 0 2481 2073"
   viewBox="0 0 2481 2073"
   version="1.1"
   id="svg8"
   sodipodi:docname="map-42871 (ohne Schatten).svg"
   inkscape:version="0.92.4 (unknown)">
  <metadata
     id="metadata14">
    <rdf:RDF>
      <cc:Work
         rdf:about="">
        <dc:format>image/svg+xml</dc:format>
        <dc:type
           rdf:resource="http://purl.org/dc/dcmitype/StillImage" />
        <dc:title></dc:title>
      </cc:Work>
    </rdf:RDF>
  </metadata>
  <defs
     id="defs12" />
  <sodipodi:namedview
     pagecolor="#ffffff"
     bordercolor="#666666"
     borderopacity="1"
     objecttolerance="10"
     gridtolerance="10"
     guidetolerance="10"
     inkscape:pageopacity="0"
     inkscape:pageshadow="2"
     inkscape:window-width="1900"
     inkscape:window-height="1035"
     id="namedview10"
     showgrid="false"
     inkscape:zoom="0.11384467"
     inkscape:cx="1104.3496"
     inkscape:cy="1036.5"
     inkscape:window-x="10"
     inkscape:window-y="35"
     inkscape:window-maximized="0"
     inkscape:current-layer="svg8" />
  <path
     d="m730.94 1839.6c-38.766-190.3-107.12-348.66-189.9-495.44-61.407-108.87-132.54-209.36-198.36-314.94-21.972-35.244-40.934-72.477-62.047-109.05-42.216-73.137-76.444-157.94-74.269-267.93 2.125-107.47 33.208-193.68 78.03-264.17 73.719-115.94 197.2-210.99 362.88-235.97 135.47-20.424 262.48 14.082 352.54 66.748 73.6 43.038 130.6 100.53 173.92 168.28 45.22 70.716 76.359 154.26 78.971 263.23 1.337 55.83-7.805 107.53-20.684 150.42-13.034 43.409-33.996 79.695-52.646 118.45-36.406 75.659-82.049 144.98-127.86 214.35-136.44 206.61-264.5 417.31-320.58 706.03z"
     fill="#e81e25"
     fill-rule="evenodd"
     stroke="#000"
     stroke-miterlimit="10"
     stroke-width="37"
     id="path2" />
  <path
     d="m912.88 651.05a183.33 183.33 0 1 0 -366.67 0 183.33 183.33 0 1 0 366.67 0"
     fill-rule="evenodd"
     id="path6" />
</svg>
