<?xml version="1.0" encoding="UTF-8" standalone="no"?>
<svg
   xmlns:dc="http://purl.org/dc/elements/1.1/"
   xmlns:cc="http://creativecommons.org/ns#"
   xmlns:rdf="http://www.w3.org/1999/02/22-rdf-syntax-ns#"
   xmlns:svg="http://www.w3.org/2000/svg"
   xmlns="http://www.w3.org/2000/svg"
   xmlns:sodipodi="http://sodipodi.sourceforge.net/DTD/sodipodi-0.dtd"
   xmlns:inkscape="http://www.inkscape.org/namespaces/inkscape"
   width="443.32748"
   height="363.55051"
   viewBox="0 0 354.66199 290.84042"
   version="1.1"
   id="svg64"
   sodipodi:docname="surveillance-147831.svg"
   inkscape:version="0.92.2 5c3e80d, 2017-08-06"
   style="fill-rule:evenodd">
  <metadata
     id="metadata70">
    <rdf:RDF>
      <cc:Work
         rdf:about="">
        <dc:format>image/svg+xml</dc:format>
        <dc:type
           rdf:resource="http://purl.org/dc/dcmitype/StillImage" />
        <dc:title></dc:title>
      </cc:Work>
    </rdf:RDF>
  </metadata>
  <defs
     id="defs68" />
  <sodipodi:namedview
     pagecolor="#ffffff"
     bordercolor="#666666"
     borderopacity="1"
     objecttolerance="10"
     gridtolerance="10"
     guidetolerance="10"
     inkscape:pageopacity="0"
     inkscape:pageshadow="2"
     inkscape:window-width="2048"
     inkscape:window-height="1088"
     id="namedview66"
     showgrid="false"
     inkscape:zoom="0.78490067"
     inkscape:cx="418.76528"
     inkscape:cy="73.883138"
     inkscape:window-x="0"
     inkscape:window-y="27"
     inkscape:window-maximized="1"
     inkscape:current-layer="svg64"
     fit-margin-top="0"
     fit-margin-left="0"
     fit-margin-right="0"
     fit-margin-bottom="0" />
  <path
     d="m 354.662,214.532 -30.63,1.806 0.067,-8.824 15.406,0.078 z"
     id="path2"
     inkscape:connector-curvature="0"
     style="fill:#454545" />
  <path
     d="m 95.642,210.68 -8.8339,-3.603 6.2891,-5.765 2.7659,4.024 z"
     id="path4"
     inkscape:connector-curvature="0"
     style="fill:#2c2c2b" />
  <path
     d="m 92.697,201.68 135.48,62.302 0.279,11.922 -7.639,-2.28 -0.167,-8.328 -131.83,-60.123 3.8772,-3.493 z"
     id="path6"
     inkscape:connector-curvature="0"
     style="fill:#737476" />
  <path
     d="M 92.6968,201.916 86.8316,207.095 0,77.5219 C 6.68582,66.6998 13.3352,55.8811 20.7252,45.5184 c 2.5134,-3.444 5.0897,-6.7994 7.7878,-10.1024 2.171,-2.573 4.3837,-5.0658 6.6858,-7.5219 2.3619,-2.4267 4.7653,-4.7541 7.2692,-7.0353 1.9475,-1.7007 3.9123,-3.3444 5.9304,-4.9597 2.9709,-2.2761 5.9608,-4.4005 9.0962,-6.44445 L 62.8137,6.45953 68.0402,4.09906 73.1411,2.32465 78.0846,1.08459 82.8364,0.32764 87.3672,0 91.6431,0.04785 c 4.7926,0.3465 9.6779,1.09882 14.1609,2.91419 L 105.753,2.8844 c 0.832,0.41931 1.704,0.7688 2.554,1.15625 0.891,0.453 1.773,0.90533 2.616,1.44635 l 234.935,118.249 8.804,90.796 -15.157,-6.94 0.313,13.395 -14.524,-4.336 -0.174,-8.671 -1.021,-0.466 v 24.339 1.975 l -0.547,0.881 -0.177,0.319 c -2.018,3.347 -4.153,6.603 -6.36,9.83 -4.806,6.97 -10.35457,13.65702 -15.38,20.59721 -7.6616,10.58077 -21.66968,28.93087 -35.49165,24.78629 C 221.07306,276.72697 148.176,250.841 118.076,240.343 l -13.979,-10.862 c -1.263,-1.191 -2.29,-2.453 -3.34,-3.828 l -1.121,-1.741 -0.9995,-1.859 -0.8742,-1.974 -0.7453,-2.085 -0.6147,-2.197 -0.4807,-2.304 -0.3461,-2.412 -0.2086,-2.518 -0.0693,-2.865 z"
     id="path10"
     inkscape:connector-curvature="0"
     style="fill:#2c2c2b"
     sodipodi:nodetypes="ccccccccccccccccccccccccccccccccssccccccccccccc" />
  <path
     d="M 8.848,79.073 C 24.296,52.966 40.301,30.94 58.012,18.793 73.156,8.406 89.549,5.065 107.906,14.4847 l 86.353,129.69 4.273,-3.561 -86.828,-130 C 108.672,6.0736 84.149,-4.7083 56.736,14.0215 33.654,29.7915 20.82,50.2795 4.059,77.4435 l 83.437,124.51 3.417,-3.017 -82.065,-119.86 z"
     id="path12"
     inkscape:connector-curvature="0"
     style="fill:#b0b4b6" />
  <path
     d="m 115.72,11.72 226.93,114.22 8.05,83.022 -149.47,-68.43 -85.505,-128.81 z"
     id="path14"
     inkscape:connector-curvature="0"
     style="fill:#9e9fa0" />
  <path
     d="m 200.59,155.26 120.1,51.508 v 23.458 L 200.6,180.605 200.598,155.26 Z"
     id="path16"
     inkscape:connector-curvature="0"
     style="fill:#87888a" />
  <path
     d="m 200.53,142.15 135.48,62.303 0.279,11.922 -7.639,-2.28 -0.167,-8.329 -131.83,-60.122 z"
     id="path18"
     inkscape:connector-curvature="0"
     style="fill:#737476" />
  <path
     d="m 164,226.5 127.80577,46.08959 c 0,0 -14.75194,17.72763 -22.87277,15.11783 -23.05077,-7.40786 -60.71,-19.65642 -60.71,-19.65642 -30.467,-10.643 -61.41,-21.286 -91.876,-31.928 14.395,3.88 30.08,1.11 47.653,-9.623 z"
     id="path20"
     inkscape:connector-curvature="0"
     style="fill:#5c5d5e"
     sodipodi:nodetypes="ccsccc" />
  <path
     d="m 193.41,148.78 v 22.301 c -0.238,24.993 -32.074,53.847 -48.974,58.23 -23.303,9.502 -45.723,3.298 -45.723,-23.377 v -84.132 c 0,-18.904 1.7758,-20.821 17.367,-38.38 6.175,-6.954 13.254,-14.188 21.915,-19.606 l 18.322,28.324 c -3.732,0.4165 -7.828,1.7884 -12.119,4.2046 -17.22,9.6966 -31.308,32.653 -31.308,51.013 v 30.176 c 0,18.361 14.088,25.449 31.308,15.752 17.22,-9.697 31.307,-32.653 31.307,-51.013 v -20.468 l 17.905,26.976 z"
     id="path22"
     inkscape:connector-curvature="0"
     style="fill:#c5c6c8" />
  <path
     d="m 98.711,121.8 c 0,-18.904 1.7758,-20.821 17.367,-38.38 6.175,-6.954 13.254,-14.188 21.915,-19.606 l 18.322,28.324 c -3.732,0.4165 -7.828,1.7884 -12.119,4.2046 -17.22,9.6966 -31.308,32.653 -31.308,51.013 -3.495,26.62 -12.668,23.233 -14.402,56.155 l 0.2257,-81.71 z"
     id="path24"
     inkscape:connector-curvature="0"
     style="fill:#9e9fa0" />
  <path
     d="m 169.417,138.23 c 0.033,0.522 0.051,1.059 0.051,1.612 0,13.65 -10.059,31.551 -22.392,39.849 -12.333,8.298 -22.393,3.933 -22.393,-9.717 0,-0.554 0.018,-1.115 0.051,-1.681 0.77,12.368 10.508,16.066 22.342,8.105 11.834,-7.961 21.571,-24.763 22.341,-38.168 z"
     id="path26"
     inkscape:connector-curvature="0"
     style="fill:#ffffff" />
  <path
     d="m 201.02,183.42 c 39.888,16.834 79.18,33.61 119.07,50.444 -9.21453,13.82901 -16.68366,24.18263 -26.63549,36.66841 C 251.90118,256.61953 208.80314,240.33562 167.842,224.799 c 11.06,-9.754 22.121,-22.393 33.18,-41.379 z"
     id="path28"
     inkscape:connector-curvature="0"
     style="fill:#9e9fa0"
     sodipodi:nodetypes="cccccc" />
  <path
     d="m 124.978,156.65 c -0.03,-0.488 -0.047,-0.989 -0.047,-1.506 0,-12.743 9.39,-29.453 20.904,-37.2 11.514,-7.747 20.904,-3.671 20.904,9.072 0,0.516 -0.017,1.04 -0.048,1.569 -0.718,-11.547 -9.809,-14.999 -20.856,-7.567 -11.047,7.432 -20.138,23.117 -20.857,35.632 z"
     id="path30"
     inkscape:connector-curvature="0"
     style="fill:#ffffff" />
  <path
     d="m 158.525,149.191 c 0.594,0.317 0.628,1.516 0.191,3.059 0.763,-0.899 1.51,-1.367 1.949,-1.133 0.686,0.365 0.363,2.324 -0.717,4.358 -1.08,2.034 -2.527,3.396 -3.214,3.031 -0.356,-0.189 -0.441,-0.807 -0.29,-1.639 -1.222,1.692 -2.516,2.664 -3.221,2.289 -0.927,-0.494 -0.492,-3.134 0.968,-5.877 1.46,-2.743 3.407,-4.58 4.334,-4.088 z"
     id="path32"
     inkscape:connector-curvature="0"
     style="fill:#d9dbdc" />
  <path
     d="M 10.746,78.794 C 28.017,51.704 45.593,27.989 63.931,17.222 77.312,9.3648 92.41,9.7015 106.712,15.8363 l 27.299,41.696 c -17.276,11.014 -37.746,32.841 -41.643,55.222 l -81.622,-33.96 z"
     id="path34"
     inkscape:connector-curvature="0"
     style="fill:#737476" />
  <path
     d="m 15.238,83.247 76.714,32.469 v 79.092 L 15.238,83.248 Z"
     id="path36"
     inkscape:connector-curvature="0"
     style="fill:#9e9fa0" />
  <path
     d="m 141.744,204.481 c 1.835,-0.438 3.476,0.354 4.549,1.942 -0.904,-0.58 -1.974,-0.786 -3.119,-0.513 -3.221,0.768 -5.847,5.037 -5.847,9.504 0,1.921 0.487,3.573 1.297,4.772 -1.636,-1.051 -2.727,-3.324 -2.727,-6.201 0,-4.467 2.627,-8.737 5.847,-9.504 z"
     id="path38"
     inkscape:connector-curvature="0"
     style="fill:#2c2c2b" />
  <path
     d="m 142.967,220.069 c -1.417,0.338 -2.685,-0.274 -3.514,-1.501 0.698,0.448 1.525,0.607 2.41,0.396 2.488,-0.593 4.517,-3.891 4.517,-7.342 0,-1.484 -0.376,-2.76 -1.002,-3.687 1.264,0.812 2.106,2.568 2.106,4.791 0,3.451 -2.029,6.75 -4.517,7.343 z"
     id="path40"
     inkscape:connector-curvature="0"
     style="fill:#2c2c2b" />
  <path
     d="m 141.744,76.9866 c 1.835,-0.4373 3.476,0.3539 4.549,1.942 -0.904,-0.5799 -1.974,-0.7856 -3.119,-0.5123 -3.221,0.7677 -5.847,5.037 -5.847,9.504 0,1.9209 0.487,3.5723 1.297,4.7712 -1.636,-1.0501 -2.727,-3.3238 -2.727,-6.2008 0,-4.467 2.627,-8.7365 5.847,-9.5041 z"
     id="path42"
     inkscape:connector-curvature="0"
     style="fill:#2c2c2b" />
  <path
     d="m 142.967,92.5747 c -1.417,0.3378 -2.685,-0.2734 -3.514,-1.5004 0.698,0.4482 1.525,0.6068 2.41,0.3959 2.488,-0.5931 4.517,-3.8916 4.517,-7.3425 0,-1.4841 -0.376,-2.76 -1.002,-3.6863 1.264,0.8113 2.106,2.568 2.106,4.7907 0,3.451 -2.029,6.7495 -4.517,7.3426 z"
     id="path44"
     inkscape:connector-curvature="0"
     style="fill:#2c2c2b" />
  <path
     d="m 339.818,220.987 -15.732,1.65 0.019,-6.43 1.194,-0.002 -0.005,0.446 z"
     id="path62"
     inkscape:connector-curvature="0"
     style="fill:#454545" />
</svg>
