<?xml version="1.0" encoding="UTF-8" standalone="no"?>
<!-- Created with Inkscape (http://www.inkscape.org/) -->

<svg
   xmlns:dc="http://purl.org/dc/elements/1.1/"
   xmlns:cc="http://creativecommons.org/ns#"
   xmlns:rdf="http://www.w3.org/1999/02/22-rdf-syntax-ns#"
   xmlns:svg="http://www.w3.org/2000/svg"
   xmlns="http://www.w3.org/2000/svg"
   xmlns:sodipodi="http://sodipodi.sourceforge.net/DTD/sodipodi-0.dtd"
   xmlns:inkscape="http://www.inkscape.org/namespaces/inkscape"
   version="1.1"
   id="svg2"
   xml:space="preserve"
   width="908.06665"
   height="333.66666"
   viewBox="0 0 908.06669 333.66665"
   sodipodi:docname="smp.svg"
   inkscape:version="0.92.2 5c3e80d, 2017-08-06"><metadata
     id="metadata8"><rdf:RDF><cc:Work
         rdf:about=""><dc:format>image/svg+xml</dc:format><dc:type
           rdf:resource="http://purl.org/dc/dcmitype/StillImage" /><dc:title></dc:title></cc:Work></rdf:RDF></metadata><defs
     id="defs6"><clipPath
       clipPathUnits="userSpaceOnUse"
       id="clipPath18"><path
         d="M 0,0 H 793.6 V 595.2 H 0 Z"
         id="path16"
         inkscape:connector-curvature="0"
         style="clip-rule:evenodd" /></clipPath></defs><sodipodi:namedview
     pagecolor="#ffffff"
     bordercolor="#666666"
     borderopacity="1"
     objecttolerance="10"
     gridtolerance="10"
     guidetolerance="10"
     inkscape:pageopacity="0"
     inkscape:pageshadow="2"
     inkscape:window-width="2048"
     inkscape:window-height="1088"
     id="namedview4"
     showgrid="false"
     fit-margin-top="0"
     fit-margin-left="0"
     fit-margin-right="0"
     fit-margin-bottom="0"
     inkscape:zoom="0.29735544"
     inkscape:cx="395.1628"
     inkscape:cy="57.331517"
     inkscape:window-x="0"
     inkscape:window-y="27"
     inkscape:window-maximized="1"
     inkscape:current-layer="g10" /><g
     id="g10"
     inkscape:groupmode="layer"
     inkscape:label="smp"
     transform="matrix(1.3333333,0,0,-1.3333333,-75.099998,673.16665)"><g
       id="g12"><g
         id="g14"
         clip-path="url(#clipPath18)"><g
           id="g20"><path
             d="M 510.2,317.4 V 425.1"
             style="fill:none;stroke:#000000;stroke-width:1.41499996;stroke-linecap:butt;stroke-linejoin:round;stroke-miterlimit:10;stroke-dasharray:none;stroke-opacity:1"
             id="path22"
             inkscape:connector-curvature="0" /></g><g
           id="g24"><path
             d="M 283.5,317.4 V 425.1"
             style="fill:none;stroke:#000000;stroke-width:1.41499996;stroke-linecap:butt;stroke-linejoin:round;stroke-miterlimit:10;stroke-dasharray:none;stroke-opacity:1"
             id="path26"
             inkscape:connector-curvature="0" /></g><g
           id="g28"><path
             d="M 113.4,317.4 V 425.1"
             style="fill:none;stroke:#000000;stroke-width:1.41499996;stroke-linecap:butt;stroke-linejoin:round;stroke-miterlimit:10;stroke-dasharray:none;stroke-opacity:1"
             id="path30"
             inkscape:connector-curvature="0" /></g><path
           d="M 396.9,447.8 H 283.5 v 56.7 h 226.7 v -56.7 z"
           style="fill:#4682b4;fill-opacity:1;fill-rule:evenodd;stroke:none"
           id="path32"
           inkscape:connector-curvature="0" /><g
           id="g34"><path
             d="M 396.9,447.8 H 283.5 v 56.7 h 226.7 v -56.7 z"
             style="fill:none;stroke:#333333;stroke-width:0.75;stroke-linecap:butt;stroke-linejoin:round;stroke-miterlimit:10;stroke-dasharray:none;stroke-opacity:1"
             id="path36"
             inkscape:connector-curvature="0" /></g><g
           id="g38"><g
             aria-label="Hauptspeicher"
             transform="matrix(1,0,0,-1,339,469.9)"
             style="font-variant:normal;font-weight:normal;font-size:18px;font-family:'Liberation Sans';-inkscape-font-specification:LiberationSans;writing-mode:lr-tb;fill:#ffffff;fill-opacity:1;fill-rule:nonzero;stroke:none"
             id="text42"><path
               d="M 9.8525391,0 V -5.7392578 H 3.1552734 V 0 H 1.4765625 v -12.383789 h 1.6787109 v 5.2382812 H 9.8525391 V -12.383789 H 11.53125 V 0 Z"
               id="path4889"
               inkscape:connector-curvature="0" /><path
               d="m 16.634672,0.17578125 q -1.432617,0 -2.15332,-0.75585937 -0.720703,-0.75585938 -0.720703,-2.07421878 0,-1.4765625 0.966797,-2.2675781 0.975586,-0.7910156 3.137695,-0.84375 l 2.135742,-0.035156 v -0.5185547 q 0,-1.1601563 -0.492187,-1.6611328 -0.492188,-0.5009766 -1.546875,-0.5009766 -1.063477,0 -1.546875,0.3603515 -0.483399,0.3603516 -0.580079,1.1513672 l -1.652343,-0.149414 q 0.404297,-2.5664063 3.814453,-2.5664063 1.792969,0 2.698242,0.8261719 0.905273,0.8173828 0.905273,2.3730469 v 4.0957031 q 0,0.703125 0.184571,1.0634766 0.18457,0.35156246 0.703125,0.35156246 0.228515,0 0.518554,-0.0615235 v 0.98437495 q -0.597656,0.14062499 -1.221679,0.14062499 -0.878906,0 -1.283203,-0.45703125 -0.395508,-0.46582031 -0.448243,-1.45019519 h -0.05273 q -0.606445,1.08984363 -1.415039,1.54687488 -0.799805,0.44824219 -1.951172,0.44824219 z m 0.360352,-1.18652345 q 0.870117,0 1.546875,-0.3955078 0.676758,-0.3955078 1.063476,-1.0810547 0.395508,-0.6943359 0.395508,-1.4238281 v -0.7822266 l -1.731445,0.035156 q -1.116211,0.017578 -1.696289,0.2285156 -0.571289,0.2109375 -0.878907,0.6503906 -0.307617,0.4394531 -0.307617,1.1513672 0,0.7734375 0.413086,1.1953125 0.421875,0.421875 1.195313,0.4218753 z"
               id="path4891"
               inkscape:connector-curvature="0" /><path
               d="m 25.763765,-9.5097656 v 6.0292968 q 0,0.9404297 0.184571,1.4589844 0.18457,0.5185547 0.588867,0.7470703 0.404297,0.2285157 1.186523,0.2285157 1.142578,0 1.801758,-0.7822266 0.65918,-0.7822266 0.65918,-2.1708984 v -5.5107422 h 1.582031 v 7.4794922 q 0,1.66113277 0.05273,2.0302734 h -1.49414 q -0.0088,-0.04394531 -0.01758,-0.23730469 -0.0088,-0.19335937 -0.02637,-0.43945312 -0.0088,-0.25488282 -0.02637,-0.94921879 h -0.02637 q -0.544922,0.98437504 -1.265625,1.39746097 -0.711914,0.40429688 -1.775391,0.40429688 -1.564453,0 -2.293945,-0.7734375 -0.720703,-0.78222655 -0.720703,-2.57519535 v -6.336914 z"
               id="path4893"
               inkscape:connector-curvature="0" /><path
               d="m 42.158882,-4.7988281 q 0,4.97460935 -3.498047,4.97460935 -2.197265,0 -2.953125,-1.65234375 h -0.04395 q 0.03516,0.070312 0.03516,1.49414063 V 3.7353516 H 34.11689 V -7.5673828 q 0,-1.4677735 -0.05273,-1.9423828 h 1.529296 q 0.0088,0.035156 0.02637,0.2548828 0.01758,0.2109375 0.03516,0.6591797 0.02637,0.4482422 0.02637,0.6152344 h 0.03516 q 0.421875,-0.8789063 1.116211,-1.2832032 0.694336,-0.4130859 1.828125,-0.4130859 1.757813,0 2.62793,1.1777344 0.870117,1.1777343 0.870117,3.7001953 z m -1.661133,0.035156 q 0,-1.9863281 -0.536132,-2.8388672 -0.536133,-0.852539 -1.705079,-0.852539 -0.940429,0 -1.476562,0.3955078 -0.527344,0.3955078 -0.808594,1.2392578 -0.272461,0.8349609 -0.272461,2.1796875 0,1.8720703 0.597656,2.7597656 0.597657,0.88769534 1.942383,0.88769534 1.177735,0 1.713867,-0.86132814 0.544922,-0.8701172 0.544922,-2.9091797 z"
               id="path4895"
               inkscape:connector-curvature="0" /><path
               d="M 47.781139,-0.0703125 Q 46.998913,0.140625 46.18153,0.140625 q -1.898438,0 -1.898438,-2.1533203 V -8.3583984 H 43.18446 v -1.1513672 h 1.160156 l 0.46582,-2.1269534 h 1.054688 v 2.1269534 h 1.757812 v 1.1513672 h -1.757812 v 6.0029296 q 0,0.6855469 0.219726,0.9667969 0.228516,0.272461 0.782227,0.272461 0.316406,0 0.914062,-0.1230469 z"
               id="path4897"
               inkscape:connector-curvature="0" /><path
               d="m 56.247608,-2.6279297 q 0,1.3447266 -1.019531,2.07421876 -1.010742,0.72949219 -2.838867,0.72949219 -1.775391,0 -2.742188,-0.58007813 -0.958008,-0.58886718 -1.248047,-1.82812502 l 1.397461,-0.2724609 q 0.202149,0.7646484 0.834961,1.125 0.632813,0.3515625 1.757813,0.3515625 1.204101,0 1.757812,-0.3691406 0.5625,-0.3691407 0.5625,-1.1074219 0,-0.5625 -0.386719,-0.9140625 -0.386718,-0.3515625 -1.248046,-0.5800781 l -1.133789,-0.2988282 q -1.362305,-0.3515625 -1.942383,-0.6855468 -0.571289,-0.3427735 -0.896485,-0.8261719 -0.325195,-0.4833984 -0.325195,-1.1865234 0,-1.3007813 0.922852,-1.9775391 0.93164,-0.6855469 2.707031,-0.6855469 1.573242,0 2.496094,0.5537109 0.93164,0.553711 1.177734,1.7753907 l -1.423828,0.1757812 q -0.131836,-0.6328125 -0.711914,-0.9667969 -0.571289,-0.3427734 -1.538086,-0.3427734 -1.072266,0 -1.582031,0.3251953 -0.509766,0.3251953 -0.509766,0.984375 0,0.4042969 0.210937,0.6679688 0.210938,0.2636719 0.624024,0.4482422 0.413086,0.1845703 1.740234,0.5097656 1.256836,0.3164062 1.810547,0.5888672 0.553711,0.2636719 0.870117,0.5888672 0.325196,0.3251953 0.500977,0.7558593 0.175781,0.421875 0.175781,0.9667969 z"
               id="path4899"
               inkscape:connector-curvature="0" /><path
               d="m 66.152882,-4.7988281 q 0,4.97460935 -3.498047,4.97460935 -2.197266,0 -2.953125,-1.65234375 h -0.04395 q 0.03516,0.070312 0.03516,1.49414063 V 3.7353516 H 58.110889 V -7.5673828 q 0,-1.4677735 -0.05273,-1.9423828 h 1.529297 q 0.0088,0.035156 0.02637,0.2548828 0.01758,0.2109375 0.03516,0.6591797 0.02637,0.4482422 0.02637,0.6152344 h 0.03516 q 0.421875,-0.8789063 1.116211,-1.2832032 0.694336,-0.4130859 1.828125,-0.4130859 1.757812,0 2.627929,1.1777344 0.870118,1.1777343 0.870118,3.7001953 z m -1.661133,0.035156 q 0,-1.9863281 -0.536133,-2.8388672 -0.536133,-0.852539 -1.705078,-0.852539 -0.94043,0 -1.476563,0.3955078 -0.527343,0.3955078 -0.808593,1.2392578 -0.272461,0.8349609 -0.272461,2.1796875 0,1.8720703 0.597656,2.7597656 0.597656,0.88769534 1.942383,0.88769534 1.177734,0 1.713867,-0.86132814 0.544922,-0.8701172 0.544922,-2.9091797 z"
               id="path4901"
               inkscape:connector-curvature="0" /><path
               d="m 69.331779,-4.4208984 q 0,1.6347656 0.676758,2.5224609 0.676758,0.8876953 1.977539,0.8876953 1.028321,0 1.643555,-0.4130859 0.624023,-0.413086 0.84375,-1.0458985 l 1.388672,0.3955078 q -0.852539,2.25000005 -3.875977,2.25000005 -2.109375,0 -3.216797,-1.25683595 -1.098632,-1.2568359 -1.098632,-3.7353515 0,-2.3554688 1.098632,-3.6123047 1.107422,-1.256836 3.155274,-1.256836 4.192383,0 4.192383,5.053711 v 0.2109375 z m 5.150391,-1.2128907 q -0.131836,-1.5029296 -0.764648,-2.1884765 -0.632813,-0.694336 -1.819336,-0.694336 -1.151367,0 -1.828125,0.7734375 -0.667969,0.7646485 -0.720703,2.109375 z"
               id="path4903"
               inkscape:connector-curvature="0" /><path
               d="m 78.010101,-11.53125 v -1.511719 h 1.582032 v 1.511719 z m 0,11.53125 v -9.5097656 h 1.582032 V 0 Z"
               id="path4905"
               inkscape:connector-curvature="0" /><path
               d="m 83.218994,-4.7988281 q 0,1.8984375 0.597656,2.8125 0.597657,0.9140625 1.801758,0.9140625 0.84375,0 1.40625,-0.4570313 0.571289,-0.4570312 0.703125,-1.40625 l 1.59961,0.1054688 q -0.184571,1.3710937 -1.168946,2.18847654 -0.984375,0.81738281 -2.496093,0.81738281 -1.995118,0 -3.049805,-1.25683595 -1.045899,-1.265625 -1.045899,-3.6826172 0,-2.399414 1.054688,-3.65625 1.054687,-1.265625 3.023437,-1.265625 1.458985,0 2.416993,0.7558594 0.966796,0.7558594 1.21289,2.0830078 l -1.625976,0.1230469 q -0.123047,-0.7910156 -0.624024,-1.2568359 -0.500976,-0.4658204 -1.423828,-0.4658204 -1.256836,0 -1.819336,0.834961 -0.5625,0.8349609 -0.5625,2.8125 z"
               id="path4907"
               inkscape:connector-curvature="0" /><path
               d="m 92.588135,-7.8837891 q 0.509765,-0.9316406 1.221679,-1.3623047 0.720704,-0.4394531 1.819336,-0.4394531 1.546875,0 2.276368,0.7734375 0.738281,0.7646485 0.738281,2.5751953 V 0 h -1.59082 v -6.0292969 q 0,-1.0019531 -0.184571,-1.4853515 -0.18457,-0.4921875 -0.606445,-0.7207032 -0.421875,-0.2285156 -1.168945,-0.2285156 -1.116211,0 -1.792969,0.7734375 -0.667969,0.7734375 -0.667969,2.0830078 V 0 h -1.582031 v -13.042969 h 1.582031 v 3.3925784 q 0,0.5361328 -0.03516,1.1074218 -0.02637,0.5712891 -0.03516,0.6591797 z"
               id="path4909"
               inkscape:connector-curvature="0" /><path
               d="m 102.12778,-4.4208984 q 0,1.6347656 0.67676,2.5224609 0.67676,0.8876953 1.97754,0.8876953 1.02832,0 1.64356,-0.4130859 0.62402,-0.413086 0.84375,-1.0458985 l 1.38867,0.3955078 q -0.85254,2.25000005 -3.87598,2.25000005 -2.10937,0 -3.2168,-1.25683595 -1.09863,-1.2568359 -1.09863,-3.7353515 0,-2.3554688 1.09863,-3.6123047 1.10743,-1.256836 3.15528,-1.256836 4.19238,0 4.19238,5.053711 v 0.2109375 z m 5.1504,-1.2128907 q -0.13184,-1.5029296 -0.76465,-2.1884765 -0.63282,-0.694336 -1.81934,-0.694336 -1.15137,0 -1.82812,0.7734375 -0.66797,0.7646485 -0.72071,2.109375 z"
               id="path4911"
               inkscape:connector-curvature="0" /><path
               d="m 110.95805,0 v -7.2949219 q 0,-1.0019531 -0.0527,-2.2148437 h 1.49414 q 0.0703,1.6171875 0.0703,1.9423828 h 0.0352 q 0.37793,-1.2216797 0.87012,-1.6699219 0.49219,-0.4482422 1.38867,-0.4482422 0.31641,0 0.6416,0.087891 v 1.4501954 q -0.3164,-0.087891 -0.84375,-0.087891 -0.98437,0 -1.50293,0.8525391 -0.51855,0.84375 -0.51855,2.4257813 V 0 Z"
               id="path4913"
               inkscape:connector-curvature="0" /></g></g><path
           d="M 113.4,340.1 H 56.7 v 62.3 h 113.4 v -62.3 z"
           style="fill:#ffd320;fill-opacity:1;fill-rule:evenodd;stroke:none"
           id="path44"
           inkscape:connector-curvature="0" /><g
           id="g46"><path
             d="M 113.4,340.1 H 56.7 v 62.3 h 113.4 v -62.3 z"
             style="fill:none;stroke:#333333;stroke-width:0.75;stroke-linecap:butt;stroke-linejoin:round;stroke-miterlimit:10;stroke-dasharray:none;stroke-opacity:1"
             id="path48"
             inkscape:connector-curvature="0" /></g><g
           id="g50"><g
             aria-label="Cache"
             transform="matrix(1,0,0,-1,87.5,365)"
             style="font-variant:normal;font-weight:normal;font-size:18px;font-family:'Liberation Sans';-inkscape-font-specification:LiberationSans;writing-mode:lr-tb;fill:#000000;fill-opacity:1;fill-rule:nonzero;stroke:none"
             id="text54"><path
               d="m 6.9609375,-11.197266 q -2.0566406,0 -3.1992187,1.3271488 -1.1425782,1.3183594 -1.1425782,3.6210938 0,2.2763671 1.1865235,3.665039 1.1953125,1.3798828 3.2255859,1.3798828 2.6015625,0 3.911133,-2.5751953 l 1.371094,0.6855469 q -0.764649,1.5996094 -2.153321,2.43457031 -1.3798826,0.83496094 -3.2080076,0.83496094 -1.8720703,0 -3.243164,-0.7734375 Q 2.3466797,-1.3798828 1.6259766,-2.8212891 0.9140625,-4.2714844 0.9140625,-6.2490234 q 0,-2.9619141 1.5996094,-4.6406246 1.5996093,-1.678711 4.4296875,-1.678711 1.977539,0 3.3046876,0.773437 1.327148,0.773438 1.951172,2.2939454 l -1.590821,0.5273438 Q 10.177734,-10.054688 9.2197266,-10.625977 8.2705078,-11.197266 6.9609375,-11.197266 Z"
               id="path4916"
               inkscape:connector-curvature="0" /><path
               d="m 16.544672,0.17578125 q -1.432617,0 -2.15332,-0.75585937 -0.720703,-0.75585938 -0.720703,-2.07421878 0,-1.4765625 0.966796,-2.2675781 0.975586,-0.7910156 3.137696,-0.84375 l 2.135742,-0.035156 v -0.5185547 q 0,-1.1601563 -0.492188,-1.6611328 -0.492187,-0.5009766 -1.546875,-0.5009766 -1.063476,0 -1.546875,0.3603515 -0.483398,0.3603516 -0.580078,1.1513672 l -1.652343,-0.149414 q 0.404296,-2.5664063 3.814453,-2.5664063 1.792968,0 2.698242,0.8261719 0.905273,0.8173828 0.905273,2.3730469 v 4.0957031 q 0,0.703125 0.184571,1.0634766 0.18457,0.35156246 0.703125,0.35156246 0.228515,0 0.518554,-0.0615235 v 0.98437495 q -0.597656,0.14062499 -1.221679,0.14062499 -0.878907,0 -1.283203,-0.45703125 -0.395508,-0.46582031 -0.448243,-1.45019519 h -0.05273 q -0.606445,1.08984363 -1.415039,1.54687488 -0.799805,0.44824219 -1.951172,0.44824219 z m 0.360352,-1.18652345 q 0.870117,0 1.546875,-0.3955078 0.676757,-0.3955078 1.063476,-1.0810547 0.395508,-0.6943359 0.395508,-1.4238281 v -0.7822266 l -1.731445,0.035156 q -1.116211,0.017578 -1.696289,0.2285156 -0.571289,0.2109375 -0.878907,0.6503906 -0.307617,0.4394531 -0.307617,1.1513672 0,0.7734375 0.413086,1.1953125 0.421875,0.421875 1.195313,0.4218753 z"
               id="path4918"
               inkscape:connector-curvature="0" /><path
               d="m 25.330992,-4.7988281 q 0,1.8984375 0.597656,2.8125 0.597656,0.9140625 1.801758,0.9140625 0.84375,0 1.40625,-0.4570313 0.571289,-0.4570312 0.703125,-1.40625 l 1.599609,0.1054688 q -0.18457,1.3710937 -1.168945,2.18847654 -0.984375,0.81738281 -2.496094,0.81738281 -1.995117,0 -3.049805,-1.25683595 -1.045898,-1.265625 -1.045898,-3.6826172 0,-2.399414 1.054687,-3.65625 1.054688,-1.265625 3.023438,-1.265625 1.458984,0 2.416992,0.7558594 0.966797,0.7558594 1.212891,2.0830078 l -1.625977,0.1230469 q -0.123047,-0.7910156 -0.624023,-1.2568359 -0.500977,-0.4658204 -1.423828,-0.4658204 -1.256836,0 -1.819336,0.834961 -0.5625,0.8349609 -0.5625,2.8125 z"
               id="path4920"
               inkscape:connector-curvature="0" /><path
               d="m 34.700132,-7.8837891 q 0.509766,-0.9316406 1.22168,-1.3623047 0.720703,-0.4394531 1.819336,-0.4394531 1.546875,0 2.276367,0.7734375 0.738281,0.7646485 0.738281,2.5751953 V 0 h -1.59082 v -6.0292969 q 0,-1.0019531 -0.18457,-1.4853515 -0.184571,-0.4921875 -0.606446,-0.7207032 -0.421875,-0.2285156 -1.168945,-0.2285156 -1.116211,0 -1.792969,0.7734375 -0.667968,0.7734375 -0.667968,2.0830078 V 0 h -1.582032 v -13.042969 h 1.582032 v 3.3925784 q 0,0.5361328 -0.03516,1.1074218 -0.02637,0.5712891 -0.03516,0.6591797 z"
               id="path4922"
               inkscape:connector-curvature="0" /><path
               d="m 44.23978,-4.4208984 q 0,1.6347656 0.676758,2.5224609 0.676758,0.8876953 1.977539,0.8876953 1.028321,0 1.643555,-0.4130859 0.624023,-0.413086 0.84375,-1.0458985 l 1.388672,0.3955078 q -0.852539,2.25000005 -3.875977,2.25000005 -2.109375,0 -3.216797,-1.25683595 -1.098632,-1.2568359 -1.098632,-3.7353515 0,-2.3554688 1.098632,-3.6123047 1.107422,-1.256836 3.155274,-1.256836 4.192383,0 4.192383,5.053711 v 0.2109375 z m 5.150391,-1.2128907 q -0.131836,-1.5029296 -0.764648,-2.1884765 -0.632813,-0.694336 -1.819336,-0.694336 -1.151368,0 -1.828125,0.7734375 -0.667969,0.7646485 -0.720703,2.109375 z"
               id="path4924"
               inkscape:connector-curvature="0" /></g></g><path
           d="M 113.4,255 H 56.7 v 62.4 H 170.1 V 255 Z"
           style="fill:#7fa0ba;fill-opacity:1;fill-rule:evenodd;stroke:none"
           id="path56"
           inkscape:connector-curvature="0" /><g
           id="g58"><path
             d="M 113.4,255 H 56.7 v 62.4 H 170.1 V 255 Z"
             style="fill:none;stroke:#333333;stroke-width:0.75;stroke-linecap:butt;stroke-linejoin:round;stroke-miterlimit:10;stroke-dasharray:none;stroke-opacity:1"
             id="path60"
             inkscape:connector-curvature="0" /></g><g
           id="g62"><g
             aria-label="CPU 1"
             transform="matrix(1,0,0,-1,86.9,280)"
             style="font-variant:normal;font-weight:normal;font-size:18px;font-family:'Liberation Sans';-inkscape-font-specification:LiberationSans;writing-mode:lr-tb;fill:#000000;fill-opacity:1;fill-rule:nonzero;stroke:none"
             id="text66"><path
               d="m 6.9609375,-11.197266 q -2.0566406,0 -3.1992187,1.3271488 -1.1425782,1.3183594 -1.1425782,3.6210938 0,2.2763671 1.1865235,3.665039 1.1953125,1.3798828 3.2255859,1.3798828 2.6015625,0 3.911133,-2.5751953 l 1.371094,0.6855469 q -0.764649,1.5996094 -2.153321,2.43457031 -1.3798826,0.83496094 -3.2080076,0.83496094 -1.8720703,0 -3.243164,-0.7734375 Q 2.3466797,-1.3798828 1.6259766,-2.8212891 0.9140625,-4.2714844 0.9140625,-6.2490234 q 0,-2.9619141 1.5996094,-4.6406246 1.5996093,-1.678711 4.4296875,-1.678711 1.977539,0 3.3046876,0.773437 1.327148,0.773438 1.951172,2.2939454 l -1.590821,0.5273438 Q 10.177734,-10.054688 9.2197266,-10.625977 8.2705078,-11.197266 6.9609375,-11.197266 Z"
               id="path4927"
               inkscape:connector-curvature="0" /><path
               d="m 24.052641,-8.6572266 q 0,1.7578125 -1.151367,2.7949219 -1.142578,1.0371094 -3.111328,1.0371094 H 16.151274 V 0 h -1.678711 v -12.383789 h 5.211914 q 2.083008,0 3.225586,0.975586 1.142578,0.975586 1.142578,2.7509764 z m -1.6875,0.017578 q 0,-2.3994144 -2.882813,-2.3994144 h -3.331054 v 4.8867191 h 3.401367 q 2.8125,0 2.8125,-2.4873047 z"
               id="path4929"
               inkscape:connector-curvature="0" /><path
               d="m 31.408804,0.17578125 q -1.520508,0 -2.654297,-0.55371094 Q 27.620718,-0.93164063 26.996695,-1.9863281 26.372671,-3.0410156 26.372671,-4.5 v -7.883789 h 1.678711 v 7.743164 q 0,1.6962891 0.861328,2.5751953 0.861328,0.8789063 2.487305,0.8789063 1.669922,0 2.592773,-0.9052735 0.931641,-0.9140625 0.931641,-2.6630859 v -7.6289062 h 1.669922 v 7.7255859 q 0,1.5029297 -0.641602,2.5927734 -0.632812,1.08984376 -1.801758,1.66992189 -1.160156,0.57128906 -2.742187,0.57128906 z"
               id="path4931"
               inkscape:connector-curvature="0" /><path
               d="m 44.337093,0 v -1.3447266 h 3.155274 V -10.87207 l -2.794922,1.9951169 v -1.4941409 l 2.926758,-2.012695 h 1.458984 v 11.0390624 h 3.014649 V 0 Z"
               id="path4933"
               inkscape:connector-curvature="0" /></g></g><path
           d="m 283.5,340.1 h -56.7 v 62.3 h 113.4 v -62.3 z"
           style="fill:#ffd320;fill-opacity:1;fill-rule:evenodd;stroke:none"
           id="path68"
           inkscape:connector-curvature="0" /><g
           id="g70"><path
             d="m 283.5,340.1 h -56.7 v 62.3 h 113.4 v -62.3 z"
             style="fill:none;stroke:#333333;stroke-width:0.75;stroke-linecap:butt;stroke-linejoin:round;stroke-miterlimit:10;stroke-dasharray:none;stroke-opacity:1"
             id="path72"
             inkscape:connector-curvature="0" /></g><g
           id="g74"><g
             aria-label="Cache"
             transform="matrix(1,0,0,-1,257.6,365)"
             style="font-variant:normal;font-weight:normal;font-size:18px;font-family:'Liberation Sans';-inkscape-font-specification:LiberationSans;writing-mode:lr-tb;fill:#000000;fill-opacity:1;fill-rule:nonzero;stroke:none"
             id="text78"><path
               d="m 6.9609375,-11.197266 q -2.0566406,0 -3.1992187,1.3271488 -1.1425782,1.3183594 -1.1425782,3.6210938 0,2.2763671 1.1865235,3.665039 1.1953125,1.3798828 3.2255859,1.3798828 2.6015625,0 3.911133,-2.5751953 l 1.371094,0.6855469 q -0.764649,1.5996094 -2.153321,2.43457031 -1.3798826,0.83496094 -3.2080076,0.83496094 -1.8720703,0 -3.243164,-0.7734375 Q 2.3466797,-1.3798828 1.6259766,-2.8212891 0.9140625,-4.2714844 0.9140625,-6.2490234 q 0,-2.9619141 1.5996094,-4.6406246 1.5996093,-1.678711 4.4296875,-1.678711 1.977539,0 3.3046876,0.773437 1.327148,0.773438 1.951172,2.2939454 l -1.590821,0.5273438 Q 10.177734,-10.054688 9.2197266,-10.625977 8.2705078,-11.197266 6.9609375,-11.197266 Z"
               id="path4936"
               inkscape:connector-curvature="0" /><path
               d="m 16.544672,0.17578125 q -1.432617,0 -2.15332,-0.75585937 -0.720703,-0.75585938 -0.720703,-2.07421878 0,-1.4765625 0.966796,-2.2675781 0.975586,-0.7910156 3.137696,-0.84375 l 2.135742,-0.035156 v -0.5185547 q 0,-1.1601563 -0.492188,-1.6611328 -0.492187,-0.5009766 -1.546875,-0.5009766 -1.063476,0 -1.546875,0.3603515 -0.483398,0.3603516 -0.580078,1.1513672 l -1.652343,-0.149414 q 0.404296,-2.5664063 3.814453,-2.5664063 1.792968,0 2.698242,0.8261719 0.905273,0.8173828 0.905273,2.3730469 v 4.0957031 q 0,0.703125 0.184571,1.0634766 0.18457,0.35156246 0.703125,0.35156246 0.228515,0 0.518554,-0.0615235 v 0.98437495 q -0.597656,0.14062499 -1.221679,0.14062499 -0.878907,0 -1.283203,-0.45703125 -0.395508,-0.46582031 -0.448243,-1.45019519 h -0.05273 q -0.606445,1.08984363 -1.415039,1.54687488 -0.799805,0.44824219 -1.951172,0.44824219 z m 0.360352,-1.18652345 q 0.870117,0 1.546875,-0.3955078 0.676757,-0.3955078 1.063476,-1.0810547 0.395508,-0.6943359 0.395508,-1.4238281 v -0.7822266 l -1.731445,0.035156 q -1.116211,0.017578 -1.696289,0.2285156 -0.571289,0.2109375 -0.878907,0.6503906 -0.307617,0.4394531 -0.307617,1.1513672 0,0.7734375 0.413086,1.1953125 0.421875,0.421875 1.195313,0.4218753 z"
               id="path4938"
               inkscape:connector-curvature="0" /><path
               d="m 25.330992,-4.7988281 q 0,1.8984375 0.597656,2.8125 0.597656,0.9140625 1.801758,0.9140625 0.84375,0 1.40625,-0.4570313 0.571289,-0.4570312 0.703125,-1.40625 l 1.599609,0.1054688 q -0.18457,1.3710937 -1.168945,2.18847654 -0.984375,0.81738281 -2.496094,0.81738281 -1.995117,0 -3.049805,-1.25683595 -1.045898,-1.265625 -1.045898,-3.6826172 0,-2.399414 1.054687,-3.65625 1.054688,-1.265625 3.023438,-1.265625 1.458984,0 2.416992,0.7558594 0.966797,0.7558594 1.212891,2.0830078 l -1.625977,0.1230469 q -0.123047,-0.7910156 -0.624023,-1.2568359 -0.500977,-0.4658204 -1.423828,-0.4658204 -1.256836,0 -1.819336,0.834961 -0.5625,0.8349609 -0.5625,2.8125 z"
               id="path4940"
               inkscape:connector-curvature="0" /><path
               d="m 34.700132,-7.8837891 q 0.509766,-0.9316406 1.22168,-1.3623047 0.720703,-0.4394531 1.819336,-0.4394531 1.546875,0 2.276367,0.7734375 0.738281,0.7646485 0.738281,2.5751953 V 0 h -1.59082 v -6.0292969 q 0,-1.0019531 -0.18457,-1.4853515 -0.184571,-0.4921875 -0.606446,-0.7207032 -0.421875,-0.2285156 -1.168945,-0.2285156 -1.116211,0 -1.792969,0.7734375 -0.667968,0.7734375 -0.667968,2.0830078 V 0 h -1.582032 v -13.042969 h 1.582032 v 3.3925784 q 0,0.5361328 -0.03516,1.1074218 -0.02637,0.5712891 -0.03516,0.6591797 z"
               id="path4942"
               inkscape:connector-curvature="0" /><path
               d="m 44.23978,-4.4208984 q 0,1.6347656 0.676758,2.5224609 0.676758,0.8876953 1.977539,0.8876953 1.028321,0 1.643555,-0.4130859 0.624023,-0.413086 0.84375,-1.0458985 l 1.388672,0.3955078 q -0.852539,2.25000005 -3.875977,2.25000005 -2.109375,0 -3.216797,-1.25683595 -1.098632,-1.2568359 -1.098632,-3.7353515 0,-2.3554688 1.098632,-3.6123047 1.107422,-1.256836 3.155274,-1.256836 4.192383,0 4.192383,5.053711 v 0.2109375 z m 5.150391,-1.2128907 q -0.131836,-1.5029296 -0.764648,-2.1884765 -0.632813,-0.694336 -1.819336,-0.694336 -1.151368,0 -1.828125,0.7734375 -0.667969,0.7646485 -0.720703,2.109375 z"
               id="path4944"
               inkscape:connector-curvature="0" /></g></g><path
           d="m 283.5,255 h -56.7 v 62.4 H 340.2 V 255 Z"
           style="fill:#7fa0ba;fill-opacity:1;fill-rule:evenodd;stroke:none"
           id="path80"
           inkscape:connector-curvature="0" /><g
           id="g82"><path
             d="m 283.5,255 h -56.7 v 62.4 H 340.2 V 255 Z"
             style="fill:none;stroke:#333333;stroke-width:0.75;stroke-linecap:butt;stroke-linejoin:round;stroke-miterlimit:10;stroke-dasharray:none;stroke-opacity:1"
             id="path84"
             inkscape:connector-curvature="0" /></g><g
           id="g86"><g
             aria-label="CPU 2"
             transform="matrix(1,0,0,-1,257,280)"
             style="font-variant:normal;font-weight:normal;font-size:18px;font-family:'Liberation Sans';-inkscape-font-specification:LiberationSans;writing-mode:lr-tb;fill:#000000;fill-opacity:1;fill-rule:nonzero;stroke:none"
             id="text90"><path
               d="m 6.9609375,-11.197266 q -2.0566406,0 -3.1992187,1.3271488 -1.1425782,1.3183594 -1.1425782,3.6210938 0,2.2763671 1.1865235,3.665039 1.1953125,1.3798828 3.2255859,1.3798828 2.6015625,0 3.911133,-2.5751953 l 1.371094,0.6855469 q -0.764649,1.5996094 -2.153321,2.43457031 -1.3798826,0.83496094 -3.2080076,0.83496094 -1.8720703,0 -3.243164,-0.7734375 Q 2.3466797,-1.3798828 1.6259766,-2.8212891 0.9140625,-4.2714844 0.9140625,-6.2490234 q 0,-2.9619141 1.5996094,-4.6406246 1.5996093,-1.678711 4.4296875,-1.678711 1.977539,0 3.3046876,0.773437 1.327148,0.773438 1.951172,2.2939454 l -1.590821,0.5273438 Q 10.177734,-10.054688 9.2197266,-10.625977 8.2705078,-11.197266 6.9609375,-11.197266 Z"
               id="path4947"
               inkscape:connector-curvature="0" /><path
               d="m 24.052641,-8.6572266 q 0,1.7578125 -1.151367,2.7949219 -1.142578,1.0371094 -3.111328,1.0371094 H 16.151274 V 0 h -1.678711 v -12.383789 h 5.211914 q 2.083008,0 3.225586,0.975586 1.142578,0.975586 1.142578,2.7509764 z m -1.6875,0.017578 q 0,-2.3994144 -2.882813,-2.3994144 h -3.331054 v 4.8867191 h 3.401367 q 2.8125,0 2.8125,-2.4873047 z"
               id="path4949"
               inkscape:connector-curvature="0" /><path
               d="m 31.408804,0.17578125 q -1.520508,0 -2.654297,-0.55371094 Q 27.620718,-0.93164063 26.996695,-1.9863281 26.372671,-3.0410156 26.372671,-4.5 v -7.883789 h 1.678711 v 7.743164 q 0,1.6962891 0.861328,2.5751953 0.861328,0.8789063 2.487305,0.8789063 1.669922,0 2.592773,-0.9052735 0.931641,-0.9140625 0.931641,-2.6630859 v -7.6289062 h 1.669922 v 7.7255859 q 0,1.5029297 -0.641602,2.5927734 -0.632812,1.08984376 -1.801758,1.66992189 -1.160156,0.57128906 -2.742187,0.57128906 z"
               id="path4951"
               inkscape:connector-curvature="0" /><path
               d="m 43.871273,0 v -1.1162109 q 0.448242,-1.0283204 1.089844,-1.8105469 0.65039,-0.7910156 1.362304,-1.4238281 0.711915,-0.6416016 1.40625,-1.1865235 0.703125,-0.5449218 1.265625,-1.0898437 0.5625,-0.5449219 0.905274,-1.1425781 0.351562,-0.5976563 0.351562,-1.3535157 0,-1.0195311 -0.597656,-1.5820311 -0.597656,-0.5625 -1.661133,-0.5625 -1.010742,0 -1.669922,0.553711 -0.65039,0.544922 -0.764648,1.5380857 l -1.617187,-0.149414 q 0.175781,-1.4853517 1.256835,-2.3642577 1.089844,-0.878906 2.794922,-0.878906 1.872071,0 2.874024,0.887695 1.010742,0.878906 1.010742,2.5048827 0,0.7207032 -0.333984,1.4326172 -0.325196,0.7119141 -0.975586,1.4238282 -0.650391,0.711914 -2.487305,2.2060547 -1.010742,0.8261718 -1.608398,1.4941406 -0.597657,0.6591797 -0.861329,1.274414 h 6.459961 V 0 Z"
               id="path4953"
               inkscape:connector-curvature="0" /></g></g><path
           d="m 510.2,340.1 h -56.7 v 62.3 h 113.4 v -62.3 z"
           style="fill:#ffd320;fill-opacity:1;fill-rule:evenodd;stroke:none"
           id="path92"
           inkscape:connector-curvature="0" /><g
           id="g94"><path
             d="m 510.2,340.1 h -56.7 v 62.3 h 113.4 v -62.3 z"
             style="fill:none;stroke:#333333;stroke-width:0.75;stroke-linecap:butt;stroke-linejoin:round;stroke-miterlimit:10;stroke-dasharray:none;stroke-opacity:1"
             id="path96"
             inkscape:connector-curvature="0" /></g><g
           id="g98"><g
             aria-label="Cache"
             transform="matrix(1,0,0,-1,484.3,365)"
             style="font-variant:normal;font-weight:normal;font-size:18px;font-family:'Liberation Sans';-inkscape-font-specification:LiberationSans;writing-mode:lr-tb;fill:#000000;fill-opacity:1;fill-rule:nonzero;stroke:none"
             id="text102"><path
               d="m 6.9609375,-11.197266 q -2.0566406,0 -3.1992187,1.3271488 -1.1425782,1.3183594 -1.1425782,3.6210938 0,2.2763671 1.1865235,3.665039 1.1953125,1.3798828 3.2255859,1.3798828 2.6015625,0 3.911133,-2.5751953 l 1.371094,0.6855469 q -0.764649,1.5996094 -2.153321,2.43457031 -1.3798826,0.83496094 -3.2080076,0.83496094 -1.8720703,0 -3.243164,-0.7734375 Q 2.3466797,-1.3798828 1.6259766,-2.8212891 0.9140625,-4.2714844 0.9140625,-6.2490234 q 0,-2.9619141 1.5996094,-4.6406246 1.5996093,-1.678711 4.4296875,-1.678711 1.977539,0 3.3046876,0.773437 1.327148,0.773438 1.951172,2.2939454 l -1.590821,0.5273438 Q 10.177734,-10.054688 9.2197266,-10.625977 8.2705078,-11.197266 6.9609375,-11.197266 Z"
               id="path4956"
               inkscape:connector-curvature="0" /><path
               d="m 16.634672,0.17578125 q -1.432617,0 -2.15332,-0.75585937 -0.720703,-0.75585938 -0.720703,-2.07421878 0,-1.4765625 0.966797,-2.2675781 0.975586,-0.7910156 3.137695,-0.84375 l 2.135742,-0.035156 v -0.5185547 q 0,-1.1601563 -0.492187,-1.6611328 -0.492188,-0.5009766 -1.546875,-0.5009766 -1.063477,0 -1.546875,0.3603515 -0.483399,0.3603516 -0.580079,1.1513672 l -1.652343,-0.149414 q 0.404297,-2.5664063 3.814453,-2.5664063 1.792969,0 2.698242,0.8261719 0.905273,0.8173828 0.905273,2.3730469 v 4.0957031 q 0,0.703125 0.184571,1.0634766 0.18457,0.35156246 0.703125,0.35156246 0.228515,0 0.518554,-0.0615235 v 0.98437495 q -0.597656,0.14062499 -1.221679,0.14062499 -0.878906,0 -1.283203,-0.45703125 -0.395508,-0.46582031 -0.448243,-1.45019519 h -0.05273 q -0.606445,1.08984363 -1.415039,1.54687488 -0.799805,0.44824219 -1.951172,0.44824219 z m 0.360352,-1.18652345 q 0.870117,0 1.546875,-0.3955078 0.676758,-0.3955078 1.063476,-1.0810547 0.395508,-0.6943359 0.395508,-1.4238281 v -0.7822266 l -1.731445,0.035156 q -1.116211,0.017578 -1.696289,0.2285156 -0.571289,0.2109375 -0.878907,0.6503906 -0.307617,0.4394531 -0.307617,1.1513672 0,0.7734375 0.413086,1.1953125 0.421875,0.421875 1.195313,0.4218753 z"
               id="path4958"
               inkscape:connector-curvature="0" /><path
               d="m 25.420992,-4.7988281 q 0,1.8984375 0.597656,2.8125 0.597656,0.9140625 1.801758,0.9140625 0.84375,0 1.40625,-0.4570313 0.571289,-0.4570312 0.703125,-1.40625 l 1.599609,0.1054688 q -0.18457,1.3710937 -1.168945,2.18847654 -0.984375,0.81738281 -2.496094,0.81738281 -1.995117,0 -3.049804,-1.25683595 -1.045899,-1.265625 -1.045899,-3.6826172 0,-2.399414 1.054688,-3.65625 1.054687,-1.265625 3.023437,-1.265625 1.458985,0 2.416992,0.7558594 0.966797,0.7558594 1.212891,2.0830078 l -1.625977,0.1230469 q -0.123046,-0.7910156 -0.624023,-1.2568359 -0.500977,-0.4658204 -1.423828,-0.4658204 -1.256836,0 -1.819336,0.834961 -0.5625,0.8349609 -0.5625,2.8125 z"
               id="path4960"
               inkscape:connector-curvature="0" /><path
               d="m 34.682133,-7.8837891 q 0.509765,-0.9316406 1.221679,-1.3623047 0.720704,-0.4394531 1.819336,-0.4394531 1.546875,0 2.276368,0.7734375 0.738281,0.7646485 0.738281,2.5751953 V 0 h -1.590821 v -6.0292969 q 0,-1.0019531 -0.18457,-1.4853515 -0.18457,-0.4921875 -0.606445,-0.7207032 -0.421875,-0.2285156 -1.168945,-0.2285156 -1.116211,0 -1.792969,0.7734375 -0.667969,0.7734375 -0.667969,2.0830078 V 0 h -1.582031 v -13.042969 h 1.582031 v 3.3925784 q 0,0.5361328 -0.03516,1.1074218 -0.02637,0.5712891 -0.03516,0.6591797 z"
               id="path4962"
               inkscape:connector-curvature="0" /><path
               d="m 44.329781,-4.4208984 q 0,1.6347656 0.676757,2.5224609 0.676758,0.8876953 1.977539,0.8876953 1.028321,0 1.643555,-0.4130859 0.624024,-0.413086 0.84375,-1.0458985 l 1.388672,0.3955078 q -0.852539,2.25000005 -3.875977,2.25000005 -2.109375,0 -3.216796,-1.25683595 -1.098633,-1.2568359 -1.098633,-3.7353515 0,-2.3554688 1.098633,-3.6123047 1.107421,-1.256836 3.155273,-1.256836 4.192383,0 4.192383,5.053711 v 0.2109375 z m 5.15039,-1.2128907 q -0.131836,-1.5029296 -0.764648,-2.1884765 -0.632813,-0.694336 -1.819336,-0.694336 -1.151367,0 -1.828125,0.7734375 -0.667969,0.7646485 -0.720703,2.109375 z"
               id="path4964"
               inkscape:connector-curvature="0" /></g></g><path
           d="m 510.2,255 h -56.7 v 62.4 H 566.9 V 255 Z"
           style="fill:#7fa0ba;fill-opacity:1;fill-rule:evenodd;stroke:none"
           id="path104"
           inkscape:connector-curvature="0" /><g
           id="g106"><path
             d="m 510.2,255 h -56.7 v 62.4 H 566.9 V 255 Z"
             style="fill:none;stroke:#333333;stroke-width:0.75;stroke-linecap:butt;stroke-linejoin:round;stroke-miterlimit:10;stroke-dasharray:none;stroke-opacity:1"
             id="path108"
             inkscape:connector-curvature="0" /></g><g
           id="g110"><g
             aria-label="CPU n"
             transform="matrix(1,0,0,-1,483.8,280)"
             style="font-variant:normal;font-weight:normal;font-size:18px;font-family:'Liberation Sans';-inkscape-font-specification:LiberationSans;writing-mode:lr-tb;fill:#000000;fill-opacity:1;fill-rule:nonzero;stroke:none"
             id="text114"><path
               d="m 6.9609375,-11.197266 q -2.0566406,0 -3.1992187,1.3271488 -1.1425782,1.3183594 -1.1425782,3.6210938 0,2.2763671 1.1865235,3.665039 1.1953125,1.3798828 3.2255859,1.3798828 2.6015625,0 3.911133,-2.5751953 l 1.371094,0.6855469 q -0.764649,1.5996094 -2.153321,2.43457031 -1.3798826,0.83496094 -3.2080076,0.83496094 -1.8720703,0 -3.243164,-0.7734375 Q 2.3466797,-1.3798828 1.6259766,-2.8212891 0.9140625,-4.2714844 0.9140625,-6.2490234 q 0,-2.9619141 1.5996094,-4.6406246 1.5996093,-1.678711 4.4296875,-1.678711 1.977539,0 3.3046876,0.773437 1.327148,0.773438 1.951172,2.2939454 l -1.590821,0.5273438 Q 10.177734,-10.054688 9.2197266,-10.625977 8.2705078,-11.197266 6.9609375,-11.197266 Z"
               id="path4967"
               inkscape:connector-curvature="0" /><path
               d="m 23.962641,-8.6572266 q 0,1.7578125 -1.151367,2.7949219 -1.142579,1.0371094 -3.111329,1.0371094 H 16.061274 V 0 h -1.678711 v -12.383789 h 5.211914 q 2.083008,0 3.225586,0.975586 1.142578,0.975586 1.142578,2.7509764 z m -1.6875,0.017578 q 0,-2.3994144 -2.882813,-2.3994144 h -3.331054 v 4.8867191 h 3.401367 q 2.8125,0 2.8125,-2.4873047 z"
               id="path4969"
               inkscape:connector-curvature="0" /><path
               d="m 31.408804,0.17578125 q -1.520508,0 -2.654297,-0.55371094 Q 27.620718,-0.93164063 26.996695,-1.9863281 26.372671,-3.0410156 26.372671,-4.5 v -7.883789 h 1.678711 v 7.743164 q 0,1.6962891 0.861328,2.5751953 0.861328,0.8789063 2.487305,0.8789063 1.669922,0 2.592773,-0.9052735 0.931641,-0.9140625 0.931641,-2.6630859 v -7.6289062 h 1.669922 v 7.7255859 q 0,1.5029297 -0.641602,2.5927734 -0.632812,1.08984376 -1.801758,1.66992189 -1.160156,0.57128906 -2.742187,0.57128906 z"
               id="path4971"
               inkscape:connector-curvature="0" /><path
               d="m 50.216976,0 v -6.0292969 q 0,-0.9404297 -0.18457,-1.4589843 -0.18457,-0.5185547 -0.588867,-0.7470704 -0.404297,-0.2285156 -1.186524,-0.2285156 -1.142578,0 -1.801758,0.7822266 -0.659179,0.7822265 -0.659179,2.1708984 V 0 h -1.582032 v -7.4794922 q 0,-1.6611328 -0.05273,-2.0302734 h 1.494141 q 0.0088,0.043945 0.01758,0.2373047 0.0088,0.1933593 0.01758,0.4482421 0.01758,0.2460938 0.03516,0.9404297 h 0.02637 q 0.544922,-0.984375 1.256836,-1.3886718 0.720703,-0.413086 1.78418,-0.413086 1.564453,0 2.285156,0.7822266 0.729492,0.7734375 0.729492,2.5664062 V 0 Z"
               id="path4973"
               inkscape:connector-curvature="0" /></g></g><path
           d="m 680.3,340.1 h -56.7 v 62.3 H 737 v -62.3 z"
           style="fill:#b3b3b3;fill-opacity:1;fill-rule:evenodd;stroke:none"
           id="path116"
           inkscape:connector-curvature="0" /><g
           id="g118"><path
             d="m 680.3,340.1 h -56.7 v 62.3 H 737 v -62.3 z"
             style="fill:none;stroke:#333333;stroke-width:0.75;stroke-linecap:butt;stroke-linejoin:round;stroke-miterlimit:10;stroke-dasharray:none;stroke-opacity:1"
             id="path120"
             inkscape:connector-curvature="0" /></g><g
           id="g122"><g
             aria-label="I/O"
             transform="matrix(1,0,0,-1,668.3,365)"
             style="font-variant:normal;font-weight:normal;font-size:18px;font-family:'Liberation Sans';-inkscape-font-specification:LiberationSans;writing-mode:lr-tb;fill:#000000;fill-opacity:1;fill-rule:nonzero;stroke:none"
             id="text126"><path
               d="m 1.6611328,0 v -12.383789 h 1.678711 V 0 Z"
               id="path4976"
               inkscape:connector-curvature="0" /><path
               d="M 4.9860001,0.17578125 8.5983047,-13.042969 H 9.9869766 L 6.4098282,0.17578125 Z"
               id="path4978"
               inkscape:connector-curvature="0" /><path
               d="m 23.201649,-6.2490234 q 0,1.9423828 -0.747071,3.4013671 -0.738281,1.4589844 -2.126953,2.24121099 -1.388672,0.78222656 -3.27832,0.78222656 -1.907227,0 -3.295898,-0.7734375 -1.379883,-0.77343745 -2.109375,-2.23242185 -0.729493,-1.4677735 -0.729493,-3.4189453 0,-2.9707032 1.625977,-4.6406246 1.625976,-1.678711 4.526367,-1.678711 1.889649,0 3.27832,0.755859 1.388672,0.74707 2.118164,2.1796875 0.738282,1.4326172 0.738282,3.3837891 z m -1.713867,0 q 0,-2.3115235 -1.160157,-3.6298829 -1.151367,-1.3183597 -3.260742,-1.3183597 -2.126953,0 -3.287109,1.3007816 -1.160157,1.3007813 -1.160157,3.647461 0,2.3291015 1.168946,3.7001953 1.177734,1.3623047 3.260742,1.3623047 2.144531,0 3.287109,-1.3183594 1.151368,-1.3271485 1.151368,-3.7441406 z"
               id="path4980"
               inkscape:connector-curvature="0" /></g></g><g
           id="g128"><path
             d="M 396.9,447.8 V 425.1"
             style="fill:none;stroke:#000000;stroke-width:1.41499996;stroke-linecap:butt;stroke-linejoin:round;stroke-miterlimit:10;stroke-dasharray:none;stroke-opacity:1"
             id="path130"
             inkscape:connector-curvature="0" /></g><g
           id="g132"><path
             d="m 680.3,402.4 v 22.7"
             style="fill:none;stroke:#000000;stroke-width:1.41499996;stroke-linecap:butt;stroke-linejoin:round;stroke-miterlimit:10;stroke-dasharray:none;stroke-opacity:1"
             id="path134"
             inkscape:connector-curvature="0" /></g><g
           id="g136"><path
             d="M 113.4,425.1 H 680.3"
             style="fill:none;stroke:#000000;stroke-width:1.41499996;stroke-linecap:butt;stroke-linejoin:round;stroke-miterlimit:10;stroke-dasharray:none;stroke-opacity:1"
             id="path138"
             inkscape:connector-curvature="0" /></g><g
           id="g140"><g
             aria-label="..."
             transform="matrix(1,0,0,-1,381.3,285)"
             style="font-variant:normal;font-weight:normal;font-size:44px;font-family:'Liberation Sans';-inkscape-font-specification:LiberationSans;writing-mode:lr-tb;fill:#000000;fill-opacity:1;fill-rule:nonzero;stroke:none"
             id="text144"><path
               d="M 4.0175781,0 V -4.7050781 H 8.2070313 V 0 Z"
               id="path4983"
               inkscape:connector-curvature="0" /><path
               d="m 16.205578,0 v -4.7050781 h 4.189453 V 0 Z"
               id="path4985"
               inkscape:connector-curvature="0" /><path
               d="m 28.481579,0 v -4.7050781 h 4.189453 V 0 Z"
               id="path4987"
               inkscape:connector-curvature="0" /></g></g><g
           id="g146"><g
             aria-label="Systembus"
             transform="matrix(1,0,0,-1,114.8,433.6)"
             style="font-variant:normal;font-weight:normal;font-size:18px;font-family:'Liberation Sans';-inkscape-font-specification:LiberationSans;writing-mode:lr-tb;fill:#000000;fill-opacity:1;fill-rule:nonzero;stroke:none"
             id="text150"><path
               d="m 11.179688,-3.4189453 q 0,1.7138672 -1.3447271,2.65429686 -1.3359375,0.94042969 -3.7705078,0.94042969 -4.5263672,0 -5.24707029,-3.14648435 L 2.4433594,-3.2958984 q 0.28125,1.1162109 1.1953125,1.6435547 0.9140625,0.5185546 2.4873047,0.5185546 1.6259765,0 2.5048828,-0.5537109 0.8876953,-0.5625 0.8876953,-1.6435547 0,-0.6064453 -0.28125,-0.984375 Q 8.9648438,-4.6933594 8.4638672,-4.9394531 7.9628906,-5.1855469 7.2685547,-5.3525391 6.5742187,-5.5195312 5.7304687,-5.7128906 4.2626953,-6.0380859 3.4980469,-6.3632812 2.7421875,-6.6884766 2.3027344,-7.0839844 1.8632812,-7.4882812 1.6259766,-8.0244141 1.3974609,-8.5605469 1.3974609,-9.2548828 q 0,-1.5908202 1.2128907,-2.4521482 1.2216797,-0.861328 3.4892578,-0.861328 2.109375,0 3.2255859,0.65039 1.1162107,0.641602 1.5644527,2.1972659 l -1.6523433,0.290039 q -0.2724609,-0.9843749 -1.0371094,-1.4238279 -0.7646484,-0.448242 -2.1181641,-0.448242 -1.4853515,0 -2.2675781,0.492187 -0.7822265,0.492188 -0.7822265,1.4677736 0,0.571289 0.2988281,0.9492187 0.3076172,0.3691406 0.8789062,0.6328125 0.5712891,0.2548828 2.2763672,0.6328125 0.5712891,0.131836 1.1337891,0.272461 0.5712891,0.1318359 1.0898437,0.3251953 0.5185547,0.1845703 0.9667969,0.4394531 0.4570312,0.2548828 0.7910152,0.6240234 0.333985,0.3691407 0.518555,0.8701172 0.19336,0.5009766 0.19336,1.1777344 z"
               id="path4990"
               inkscape:connector-curvature="0" /><path
               d="m 13.666711,3.7353516 q -0.650391,0 -1.089844,-0.09668 V 2.4521484 q 0.333984,0.052734 0.738281,0.052734 1.476563,0 2.337891,-2.17089842 L 15.802453,-0.04394571 12.031945,-9.509766 h 1.6875 l 2.003906,5.2558594 q 0.04395,0.1230468 0.105469,0.2988281 0.06152,0.1669922 0.395508,1.1425781 0.333984,0.9755859 0.360352,1.0898438 l 0.615234,-1.7314454 2.083008,-6.055664 h 1.669922 L 17.296594,0 q -0.588868,1.5205078 -1.098633,2.2587891 -0.509766,0.7470703 -1.133789,1.1074218 -0.615235,0.3691407 -1.397461,0.3691407 z"
               id="path4992"
               inkscape:connector-curvature="0" /><path
               d="m 29.33761,-2.6279297 q 0,1.3447266 -1.019531,2.07421876 -1.010742,0.72949219 -2.838867,0.72949219 -1.775391,0 -2.742188,-0.58007813 -0.958008,-0.58886718 -1.248047,-1.82812502 l 1.397461,-0.2724609 q 0.202149,0.7646484 0.834961,1.125 0.632813,0.3515625 1.757813,0.3515625 1.204101,0 1.757812,-0.3691406 0.5625,-0.3691407 0.5625,-1.1074219 0,-0.5625 -0.386718,-0.9140625 -0.386719,-0.3515625 -1.248047,-0.5800781 L 25.03097,-4.2978516 q -1.362305,-0.3515625 -1.942383,-0.6855468 -0.571289,-0.3427735 -0.896485,-0.8261719 -0.325195,-0.4833984 -0.325195,-1.1865234 0,-1.3007813 0.922852,-1.9775391 0.93164,-0.6855469 2.707031,-0.6855469 1.573242,0 2.496094,0.5537109 0.93164,0.553711 1.177734,1.7753907 l -1.423828,0.1757812 q -0.131836,-0.6328125 -0.711914,-0.9667969 -0.571289,-0.3427734 -1.538086,-0.3427734 -1.072266,0 -1.582031,0.3251953 -0.509766,0.3251953 -0.509766,0.984375 0,0.4042969 0.210938,0.6679688 0.210937,0.2636719 0.624023,0.4482422 0.413086,0.1845703 1.740234,0.5097656 1.256836,0.3164062 1.810547,0.5888672 0.553711,0.2636719 0.870117,0.5888672 0.325196,0.3251953 0.500977,0.7558593 0.175781,0.421875 0.175781,0.9667969 z"
               id="path4994"
               inkscape:connector-curvature="0" /><path
               d="m 34.857141,-0.0703125 q -0.782226,0.2109375 -1.599609,0.2109375 -1.898437,0 -1.898437,-2.1533203 v -6.3457031 h -1.098633 v -1.1513672 h 1.160156 l 0.46582,-2.1269534 h 1.054688 v 2.1269534 h 1.757812 v 1.1513672 h -1.757812 v 6.0029296 q 0,0.6855469 0.219726,0.9667969 0.228516,0.272461 0.782227,0.272461 0.316406,0 0.914062,-0.1230469 z"
               id="path4996"
               inkscape:connector-curvature="0" /><path
               d="m 37.39978,-4.4208984 q 0,1.6347656 0.676758,2.5224609 0.676758,0.8876953 1.977539,0.8876953 1.02832,0 1.643555,-0.4130859 0.624023,-0.413086 0.84375,-1.0458985 l 1.388672,0.3955078 q -0.852539,2.25000005 -3.875977,2.25000005 -2.109375,0 -3.216797,-1.25683595 -1.098633,-1.2568359 -1.098633,-3.7353515 0,-2.3554688 1.098633,-3.6123047 1.107422,-1.256836 3.155274,-1.256836 4.192383,0 4.192383,5.053711 v 0.2109375 z m 5.150391,-1.2128907 q -0.131836,-1.5029296 -0.764649,-2.1884765 -0.632812,-0.694336 -1.819335,-0.694336 -1.151368,0 -1.828125,0.7734375 -0.667969,0.7646485 -0.720704,2.109375 z"
               id="path4998"
               inkscape:connector-curvature="0" /><path
               d="m 51.731998,0 v -6.0292969 q 0,-1.3798828 -0.377929,-1.9072265 -0.37793,-0.5273438 -1.362305,-0.5273438 -1.010742,0 -1.599609,0.7734375 -0.588867,0.7734375 -0.588867,2.1796875 V 0 h -1.573243 v -7.4794922 q 0,-1.6611328 -0.05273,-2.0302734 h 1.494141 q 0.0088,0.043945 0.01758,0.2373047 0.0088,0.1933593 0.01758,0.4482421 0.01758,0.2460938 0.03516,0.9404297 h 0.02637 q 0.509766,-1.0107422 1.168946,-1.40625 0.659179,-0.3955078 1.608398,-0.3955078 1.081055,0 1.705078,0.4306641 0.632813,0.430664 0.878906,1.3710937 h 0.02637 q 0.492187,-0.9580078 1.186523,-1.3798828 0.703125,-0.421875 1.696289,-0.421875 1.441406,0 2.091797,0.7822266 0.65918,0.7822265 0.65918,2.5664062 V 0 H 57.22518 v -6.0292969 q 0,-1.3798828 -0.37793,-1.9072265 -0.37793,-0.5273438 -1.362305,-0.5273438 -1.037109,0 -1.617187,0.7734375 -0.571289,0.7646485 -0.571289,2.1796875 V 0 Z"
               id="path5000"
               inkscape:connector-curvature="0" /><path
               d="m 69.230885,-4.7988281 q 0,4.97460935 -3.498047,4.97460935 -1.081055,0 -1.801758,-0.38671875 -0.711914,-0.39550781 -1.160156,-1.265625 h -0.01758 q 0,0.2724609 -0.03516,0.83496094 Q 62.683033,-0.08789062 62.665455,0 h -1.529297 q 0.05273,-0.47460938 0.05273,-1.9599609 V -13.042969 h 1.582032 v 3.7177737 q 0,0.571289 -0.03516,1.3447266 h 0.03516 q 0.439453,-0.9140626 1.160156,-1.3095704 0.729492,-0.3955078 1.801758,-0.3955078 1.801757,0 2.645507,1.2128906 0.85254,1.2128907 0.85254,3.6738282 z m -1.661133,0.052734 q 0,-1.9951172 -0.527344,-2.8564454 -0.527344,-0.8613281 -1.713867,-0.8613281 -1.335938,0 -1.951172,0.9140625 -0.606445,0.9140625 -0.606445,2.9003906 0,1.8720703 0.597656,2.7685547 0.597656,0.88769534 1.942383,0.88769534 1.195312,0 1.722656,-0.87890624 0.536133,-0.8876953 0.536133,-2.8740234 z"
               id="path5002"
               inkscape:connector-curvature="0" /><path
               d="m 72.743767,-9.5097656 v 6.0292968 q 0,0.9404297 0.18457,1.4589844 0.18457,0.5185547 0.588867,0.7470703 0.404297,0.2285157 1.186524,0.2285157 1.142578,0 1.801758,-0.7822266 0.659179,-0.7822266 0.659179,-2.1708984 v -5.5107422 h 1.582031 v 7.4794922 q 0,1.66113277 0.05273,2.0302734 H 77.30529 q -0.0088,-0.04394531 -0.01758,-0.23730469 -0.0088,-0.19335937 -0.02637,-0.43945312 -0.0088,-0.25488282 -0.02637,-0.94921879 H 77.2086 q -0.544922,0.98437504 -1.265625,1.39746097 -0.711915,0.40429688 -1.775391,0.40429688 -1.564453,0 -2.293945,-0.7734375 -0.720704,-0.78222655 -0.720704,-2.57519535 v -6.336914 z"
               id="path5004"
               inkscape:connector-curvature="0" /><path
               d="m 88.233612,-2.6279297 q 0,1.3447266 -1.019531,2.07421876 -1.010742,0.72949219 -2.838867,0.72949219 -1.775391,0 -2.742188,-0.58007813 -0.958008,-0.58886718 -1.248047,-1.82812502 l 1.397461,-0.2724609 q 0.202149,0.7646484 0.834961,1.125 0.632813,0.3515625 1.757813,0.3515625 1.204101,0 1.757812,-0.3691406 0.5625,-0.3691407 0.5625,-1.1074219 0,-0.5625 -0.386719,-0.9140625 -0.386718,-0.3515625 -1.248047,-0.5800781 l -1.133789,-0.2988282 q -1.362304,-0.3515625 -1.942382,-0.6855468 -0.571289,-0.3427735 -0.896485,-0.8261719 -0.325195,-0.4833984 -0.325195,-1.1865234 0,-1.3007813 0.922851,-1.9775391 0.931641,-0.6855469 2.707032,-0.6855469 1.573242,0 2.496093,0.5537109 0.931641,0.553711 1.177735,1.7753907 l -1.423828,0.1757812 q -0.131836,-0.6328125 -0.711914,-0.9667969 -0.571289,-0.3427734 -1.538086,-0.3427734 -1.072266,0 -1.582032,0.3251953 -0.509765,0.3251953 -0.509765,0.984375 0,0.4042969 0.210937,0.6679688 0.210938,0.2636719 0.624024,0.4482422 0.413086,0.1845703 1.740234,0.5097656 1.256836,0.3164062 1.810547,0.5888672 0.553711,0.2636719 0.870117,0.5888672 0.325196,0.3251953 0.500977,0.7558593 0.175781,0.421875 0.175781,0.9667969 z"
               id="path5006"
               inkscape:connector-curvature="0" /></g></g></g></g></g></svg>